<svg width="78" height="78" viewBox="0 0 78 78" fill="none" xmlns="http://www.w3.org/2000/svg">
<g filter="url(#filter0_d_489_109)">
<mask id="path-1-inside-1_489_109" fill="white">
<path d="M4 12C4 5.37258 9.37258 0 16 0H62C68.6274 0 74 5.37258 74 12V58C74 64.6274 68.6274 70 62 70H16C9.37258 70 4 64.6274 4 58V12Z"/>
</mask>
<path d="M4 12C4 5.37258 9.37258 0 16 0H62C68.6274 0 74 5.37258 74 12V58C74 64.6274 68.6274 70 62 70H16C9.37258 70 4 64.6274 4 58V12Z" fill="#183B59"/>
<path d="M4 0H74H4ZM74 70H4H74ZM4 70V0V70ZM62 0C69.1797 0 75 5.8203 75 13V57C75 64.1797 69.1797 70 62 70C68.0751 70 73 64.6274 73 58V12C73 5.37258 68.0751 0 62 0Z" fill="#5C7890" mask="url(#path-1-inside-1_489_109)"/>
<path d="M45.6794 27.4867C44.9119 26.7987 44.1213 26.296 43.3075 25.9784C42.4971 25.6344 41.6919 25.4624 40.8919 25.4624C39.8786 25.4624 39.0222 25.7006 38.3228 26.1769C37.6234 26.6532 37.2258 27.275 37.1301 28.0424C37.0641 28.5717 37.1696 29.0083 37.4467 29.3523C37.7238 29.6963 38.0992 30.0006 38.5728 30.2652C39.0765 30.5034 39.6367 30.7151 40.2536 30.9003C40.8972 31.0855 41.5258 31.284 42.1394 31.4957C44.5937 32.3424 46.3185 33.4803 47.3136 34.9092C48.3386 36.3117 48.7092 38.1508 48.4254 40.4265C48.2339 41.9612 47.794 43.3505 47.1055 44.5942C46.4437 45.8379 45.5501 46.9096 44.4245 47.8093C43.3289 48.6825 42.0181 49.3573 40.492 49.8336C38.9893 50.3363 37.3179 50.5877 35.4779 50.5877C31.6646 50.5877 28.2715 49.4631 25.2988 47.2139L29.441 40.9425C30.4856 41.9745 31.5499 42.7419 32.6339 43.2446C33.7178 43.7474 34.8198 43.9988 35.9398 43.9988C37.2198 43.9988 38.2028 43.7077 38.8887 43.1256C39.6013 42.5434 40.0038 41.8819 40.0963 41.1409C40.1524 40.6911 40.1202 40.3074 39.9998 39.9899C39.8827 39.6458 39.654 39.3415 39.3137 39.0769C38.9767 38.7858 38.5164 38.5212 37.9327 38.2831C37.3758 38.0449 36.6888 37.7803 35.8718 37.4892C34.898 37.1717 33.9409 36.8277 33.0005 36.4572C32.09 36.0603 31.2877 35.5443 30.5936 34.9092C29.9261 34.2741 29.4118 33.4803 29.0506 32.5277C28.7194 31.5486 28.6462 30.3181 28.8311 28.8363C29.0159 27.3544 29.4226 26.0181 30.0511 24.8273C30.7096 23.6101 31.5317 22.5781 32.5173 21.7313C33.5329 20.8581 34.7104 20.1833 36.0498 19.707C37.4159 19.2307 38.8989 18.9926 40.4989 18.9926C41.9922 18.9926 43.5258 19.2043 45.0997 19.6276C46.6769 20.0246 48.1626 20.62 49.5569 21.4138L45.6794 27.4867Z" fill="#F6FBFF"/>
</g>
<defs>
<filter id="filter0_d_489_109" x="0" y="0" width="78" height="78" filterUnits="userSpaceOnUse" color-interpolation-filters="sRGB">
<feFlood flood-opacity="0" result="BackgroundImageFix"/>
<feColorMatrix in="SourceAlpha" type="matrix" values="0 0 0 0 0 0 0 0 0 0 0 0 0 0 0 0 0 0 127 0" result="hardAlpha"/>
<feOffset dy="4"/>
<feGaussianBlur stdDeviation="2"/>
<feComposite in2="hardAlpha" operator="out"/>
<feColorMatrix type="matrix" values="0 0 0 0 0 0 0 0 0 0 0 0 0 0 0 0 0 0 0.25 0"/>
<feBlend mode="normal" in2="BackgroundImageFix" result="effect1_dropShadow_489_109"/>
<feBlend mode="normal" in="SourceGraphic" in2="effect1_dropShadow_489_109" result="shape"/>
</filter>
</defs>
</svg>
